<?xml version="1.0" encoding="UTF-8" standalone="no"?>
<!DOCTYPE svg PUBLIC "-//W3C//DTD SVG 1.1//EN"
 "http://www.w3.org/Graphics/SVG/1.1/DTD/svg11.dtd">
<!--
     Generated by graphviz version 2.26.3 (20100126.1600)
     Wael Nasreddine <wael.nasreddine@gmail.com>
<!--
     Title: IDT 92HD71B7X 103c:30f4 HP Pavilion DV7-1299EF
     Card0 Codec0
-->
<svg width="590pt" height="476pt"
 viewBox="0.00 0.00 590.00 476.00" xmlns="http://www.w3.org/2000/svg" xmlns:xlink="http://www.w3.org/1999/xlink">
<g id="graph1" class="graph" transform="scale(1 1) rotate(0) translate(4 472)">
<title>_anonymous_0</title>
<polygon fill="white" stroke="white" points="-4,5 -4,-472 587,-472 587,5 -4,5"/>
<g id="graph2" class="cluster"><title>cluster&#45;nid&#45;04</title>
<polygon fill="none" stroke="#cccccc" points="8,-15 8,-85 164,-85 164,-15 8,-15"/>
</g>
<g id="graph3" class="cluster"><title>cluster&#45;nid&#45;05&#45;in</title>
<polygon fill="none" stroke="#cccccc" points="364,-8 364,-92 574,-92 574,-8 364,-8"/>
</g>
<g id="graph5" class="cluster"><title>cluster&#45;nid&#45;06</title>
<polygon fill="none" stroke="#cccccc" points="8,-107 8,-177 164,-177 164,-107 8,-107"/>
</g>
<g id="graph6" class="cluster"><title>cluster&#45;nid&#45;07&#45;in</title>
<polygon fill="none" stroke="#cccccc" points="364,-100 364,-184 574,-184 574,-100 364,-100"/>
</g>
<g id="graph8" class="cluster"><title>cluster&#45;nid&#45;08</title>
<polygon fill="none" stroke="#cccccc" points="8,-199 8,-269 164,-269 164,-199 8,-199"/>
</g>
<g id="graph9" class="cluster"><title>cluster&#45;nid&#45;09&#45;in</title>
<polygon fill="none" stroke="#cccccc" points="364,-192 364,-276 574,-276 574,-192 364,-192"/>
</g>
<g id="graph11" class="cluster"><title>cluster&#45;nid&#45;0a</title>
<polygon fill="none" stroke="#cccccc" points="8,-291 8,-361 164,-361 164,-291 8,-291"/>
</g>
<g id="graph12" class="cluster"><title>cluster&#45;nid&#45;0b&#45;in</title>
<polygon fill="none" stroke="#cccccc" points="364,-284 364,-368 574,-368 574,-284 364,-284"/>
</g>
<g id="graph14" class="cluster"><title>cluster&#45;nid&#45;0c</title>
<polygon fill="none" stroke="#cccccc" points="8,-383 8,-453 164,-453 164,-383 8,-383"/>
</g>
<g id="graph15" class="cluster"><title>cluster&#45;nid&#45;0d&#45;in</title>
<polygon fill="none" stroke="#cccccc" points="364,-376 364,-460 574,-460 574,-376 364,-376"/>
</g>
<!-- nid&#45;04 -->
<g id="node2" class="node"><title>nid&#45;04</title>
<ellipse fill="none" stroke="blue" cx="86" cy="-50" rx="68.7979" ry="26.8701"/>
<text text-anchor="middle" x="86" y="-52.4" font-family="Times,serif" font-size="14.00">4</text>
<text text-anchor="middle" x="86" y="-37.4" font-family="Times,serif" font-size="14.00">Stereo Digital</text>
</g>
<!-- nid&#45;05&#45;in -->
<g id="node4" class="node"><title>nid&#45;05&#45;in</title>
<polygon fill="none" stroke="green" points="566,-84 372,-84 372,-16 566,-16 566,-84"/>
<text text-anchor="middle" x="469" y="-67.4" font-family="Times,serif" font-size="14.00">5</text>
<text text-anchor="middle" x="469" y="-52.4" font-family="Times,serif" font-size="14.00">[Jack] Digital Out at Int HDMI</text>
<text text-anchor="middle" x="469" y="-37.4" font-family="Times,serif" font-size="14.00">Stereo Digital</text>
<text text-anchor="middle" x="469" y="-22.4" font-family="Times,serif" font-size="14.00">OUT Detect</text>
</g>
<!-- nid&#45;04&#45;&gt;nid&#45;05&#45;in -->
<g id="edge5" class="edge"><title>nid&#45;04&#45;&gt;nid&#45;05&#45;in</title>
<path fill="none" stroke="#333333" d="M155.803,-50C213.369,-50 295.987,-50 361.916,-50"/>
<polygon fill="#333333" stroke="#333333" points="361.932,-53.5001 371.932,-50 361.932,-46.5001 361.932,-53.5001"/>
</g>
<!-- nid&#45;06 -->
<g id="node8" class="node"><title>nid&#45;06</title>
<ellipse fill="none" stroke="blue" cx="86" cy="-142" rx="68.7979" ry="26.8701"/>
<text text-anchor="middle" x="86" y="-144.4" font-family="Times,serif" font-size="14.00">6</text>
<text text-anchor="middle" x="86" y="-129.4" font-family="Times,serif" font-size="14.00">Stereo Digital</text>
</g>
<!-- nid&#45;07&#45;in -->
<g id="node10" class="node"><title>nid&#45;07&#45;in</title>
<polygon fill="none" stroke="green" points="565,-176 373,-176 373,-108 565,-108 565,-176"/>
<text text-anchor="middle" x="469" y="-159.4" font-family="Times,serif" font-size="14.00">7</text>
<text text-anchor="middle" x="469" y="-144.4" font-family="Times,serif" font-size="14.00">[N/A] Digital Out at Int HDMI</text>
<text text-anchor="middle" x="469" y="-129.4" font-family="Times,serif" font-size="14.00">Stereo Digital</text>
<text text-anchor="middle" x="469" y="-114.4" font-family="Times,serif" font-size="14.00">OUT Detect</text>
</g>
<!-- nid&#45;06&#45;&gt;nid&#45;07&#45;in -->
<g id="edge10" class="edge"><title>nid&#45;06&#45;&gt;nid&#45;07&#45;in</title>
<path fill="none" stroke="#333333" d="M155.803,-142C213.472,-142 296.282,-142 362.268,-142"/>
<polygon fill="#333333" stroke="#333333" points="362.292,-145.5 372.292,-142 362.292,-138.5 362.292,-145.5"/>
</g>
<!-- nid&#45;08 -->
<g id="node14" class="node"><title>nid&#45;08</title>
<ellipse fill="none" stroke="blue" cx="86" cy="-234" rx="68.7979" ry="26.8701"/>
<text text-anchor="middle" x="86" y="-236.4" font-family="Times,serif" font-size="14.00">8</text>
<text text-anchor="middle" x="86" y="-221.4" font-family="Times,serif" font-size="14.00">Stereo Digital</text>
</g>
<!-- nid&#45;09&#45;in -->
<g id="node16" class="node"><title>nid&#45;09&#45;in</title>
<polygon fill="none" stroke="green" points="565,-268 373,-268 373,-200 565,-200 565,-268"/>
<text text-anchor="middle" x="469" y="-251.4" font-family="Times,serif" font-size="14.00">9</text>
<text text-anchor="middle" x="469" y="-236.4" font-family="Times,serif" font-size="14.00">[N/A] Digital Out at Int HDMI</text>
<text text-anchor="middle" x="469" y="-221.4" font-family="Times,serif" font-size="14.00">Stereo Digital</text>
<text text-anchor="middle" x="469" y="-206.4" font-family="Times,serif" font-size="14.00">OUT Detect</text>
</g>
<!-- nid&#45;08&#45;&gt;nid&#45;09&#45;in -->
<g id="edge15" class="edge"><title>nid&#45;08&#45;&gt;nid&#45;09&#45;in</title>
<path fill="none" stroke="#333333" d="M155.803,-234C213.472,-234 296.282,-234 362.268,-234"/>
<polygon fill="#333333" stroke="#333333" points="362.292,-237.5 372.292,-234 362.292,-230.5 362.292,-237.5"/>
</g>
<!-- nid&#45;0a -->
<g id="node20" class="node"><title>nid&#45;0a</title>
<ellipse fill="none" stroke="blue" cx="86" cy="-326" rx="68.7979" ry="26.8701"/>
<text text-anchor="middle" x="86" y="-328.4" font-family="Times,serif" font-size="14.00">10</text>
<text text-anchor="middle" x="86" y="-313.4" font-family="Times,serif" font-size="14.00">Stereo Digital</text>
</g>
<!-- nid&#45;0b&#45;in -->
<g id="node22" class="node"><title>nid&#45;0b&#45;in</title>
<polygon fill="none" stroke="green" points="565,-360 373,-360 373,-292 565,-292 565,-360"/>
<text text-anchor="middle" x="469" y="-343.4" font-family="Times,serif" font-size="14.00">11</text>
<text text-anchor="middle" x="469" y="-328.4" font-family="Times,serif" font-size="14.00">[N/A] Digital Out at Int HDMI</text>
<text text-anchor="middle" x="469" y="-313.4" font-family="Times,serif" font-size="14.00">Stereo Digital</text>
<text text-anchor="middle" x="469" y="-298.4" font-family="Times,serif" font-size="14.00">OUT Detect</text>
</g>
<!-- nid&#45;0a&#45;&gt;nid&#45;0b&#45;in -->
<g id="edge20" class="edge"><title>nid&#45;0a&#45;&gt;nid&#45;0b&#45;in</title>
<path fill="none" stroke="#333333" d="M155.803,-326C213.472,-326 296.282,-326 362.268,-326"/>
<polygon fill="#333333" stroke="#333333" points="362.292,-329.5 372.292,-326 362.292,-322.5 362.292,-329.5"/>
</g>
<!-- nid&#45;0c -->
<g id="node26" class="node"><title>nid&#45;0c</title>
<ellipse fill="none" stroke="blue" cx="86" cy="-418" rx="68.7979" ry="26.8701"/>
<text text-anchor="middle" x="86" y="-420.4" font-family="Times,serif" font-size="14.00">12</text>
<text text-anchor="middle" x="86" y="-405.4" font-family="Times,serif" font-size="14.00">Stereo Digital</text>
</g>
<!-- nid&#45;0d&#45;in -->
<g id="node28" class="node"><title>nid&#45;0d&#45;in</title>
<polygon fill="none" stroke="green" points="565,-452 373,-452 373,-384 565,-384 565,-452"/>
<text text-anchor="middle" x="469" y="-435.4" font-family="Times,serif" font-size="14.00">13</text>
<text text-anchor="middle" x="469" y="-420.4" font-family="Times,serif" font-size="14.00">[N/A] Digital Out at Int HDMI</text>
<text text-anchor="middle" x="469" y="-405.4" font-family="Times,serif" font-size="14.00">Stereo Digital</text>
<text text-anchor="middle" x="469" y="-390.4" font-family="Times,serif" font-size="14.00">OUT Detect</text>
</g>
<!-- nid&#45;0c&#45;&gt;nid&#45;0d&#45;in -->
<g id="edge25" class="edge"><title>nid&#45;0c&#45;&gt;nid&#45;0d&#45;in</title>
<path fill="none" stroke="#333333" d="M155.803,-418C213.472,-418 296.282,-418 362.268,-418"/>
<polygon fill="#333333" stroke="#333333" points="362.292,-421.5 372.292,-418 362.292,-414.5 362.292,-421.5"/>
</g>
</g>
</svg>
