<?xml version="1.0" encoding="UTF-8" standalone="no"?>
<!DOCTYPE svg PUBLIC "-//W3C//DTD SVG 1.1//EN"
 "http://www.w3.org/Graphics/SVG/1.1/DTD/svg11.dtd">
<!-- Generated by graphviz version 2.26.3 (20100126.1600)
 -->
<!-- Title: _anonymous_0 Pages: 1 -->
<svg width="3154pt" height="976pt"
 viewBox="0.00 0.00 3154.00 976.00" xmlns="http://www.w3.org/2000/svg" xmlns:xlink="http://www.w3.org/1999/xlink">
<g id="graph1" class="graph" transform="scale(1 1) rotate(0) translate(4 972)">
<title>_anonymous_0</title>
<polygon fill="white" stroke="white" points="-4,5 -4,-972 3151,-972 3151,5 -4,5"/>
<g id="graph2" class="cluster"><title>cluster&#45;nid&#45;0a&#45;in</title>
<polygon fill="none" stroke="#cccccc" points="1826,-569 1826,-653 2012,-653 2012,-569 1826,-569"/>
</g>
<g id="graph5" class="cluster"><title>cluster&#45;nid&#45;0b&#45;out</title>
<polygon fill="none" stroke="#cccccc" points="8,-170 8,-254 176,-254 176,-170 8,-170"/>
</g>
<g id="graph7" class="cluster"><title>cluster&#45;nid&#45;0c&#45;out</title>
<polygon fill="none" stroke="#cccccc" points="8,-78 8,-162 176,-162 176,-78 8,-78"/>
</g>
<g id="graph8" class="cluster"><title>cluster&#45;nid&#45;0d&#45;in</title>
<polygon fill="none" stroke="#cccccc" points="1826,-761 1826,-845 2012,-845 2012,-761 1826,-761"/>
</g>
<g id="graph11" class="cluster"><title>cluster&#45;nid&#45;0e&#45;out</title>
<polygon fill="none" stroke="#cccccc" points="8,-262 8,-346 176,-346 176,-262 8,-262"/>
</g>
<g id="graph12" class="cluster"><title>cluster&#45;nid&#45;0f&#45;in</title>
<polygon fill="none" stroke="#cccccc" points="1835,-477 1835,-561 2003,-561 2003,-477 1835,-477"/>
</g>
<g id="graph14" class="cluster"><title>cluster&#45;nid&#45;10</title>
<polygon fill="none" stroke="#cccccc" points="376,-600 376,-670 821,-670 821,-600 376,-600"/>
</g>
<g id="graph15" class="cluster"><title>cluster&#45;nid&#45;11</title>
<polygon fill="none" stroke="#cccccc" points="376,-770 376,-840 821,-840 821,-770 376,-770"/>
</g>
<g id="graph16" class="cluster"><title>cluster&#45;nid&#45;12</title>
<polygon fill="none" stroke="#cccccc" points="2606,-197 2606,-267 2698,-267 2698,-197 2606,-197"/>
</g>
<g id="graph17" class="cluster"><title>cluster&#45;nid&#45;13</title>
<polygon fill="none" stroke="#cccccc" points="2606,-19 2606,-89 2698,-89 2698,-19 2606,-19"/>
</g>
<g id="graph18" class="cluster"><title>cluster&#45;nid&#45;14&#45;in</title>
<polygon fill="none" stroke="#cccccc" points="2568,-665 2568,-749 2736,-749 2736,-665 2568,-665"/>
</g>
<g id="graph20" class="cluster"><title>cluster&#45;nid&#45;15</title>
<polygon fill="none" stroke="#cccccc" points="1856,-661 1856,-753 1982,-753 1982,-661 1856,-661"/>
</g>
<g id="graph21" class="cluster"><title>cluster&#45;nid&#45;16</title>
<polygon fill="none" stroke="#cccccc" points="2240,-668 2240,-746 2340,-746 2340,-668 2240,-668"/>
</g>
<g id="graph22" class="cluster"><title>cluster&#45;nid&#45;17</title>
<polygon fill="none" stroke="#cccccc" points="1070,-240 1070,-558 1594,-558 1594,-240 1070,-240"/>
</g>
<g id="graph23" class="cluster"><title>cluster&#45;nid&#45;18&#45;in</title>
<polygon fill="none" stroke="#cccccc" points="38,-848 38,-900 474,-900 474,-848 38,-848"/>
</g>
<g id="graph24" class="cluster"><title>cluster&#45;nid&#45;18&#45;out</title>
<polygon fill="none" stroke="#cccccc" points="1458,-116 1458,-200 1626,-200 1626,-116 1458,-116"/>
</g>
<g id="graph25" class="cluster"><title>cluster&#45;nid&#45;19&#45;in</title>
<polygon fill="none" stroke="#cccccc" points="38,-908 38,-960 474,-960 474,-908 38,-908"/>
</g>
<g id="graph26" class="cluster"><title>cluster&#45;nid&#45;19&#45;out</title>
<polygon fill="none" stroke="#cccccc" points="1458,-24 1458,-108 1626,-108 1626,-24 1458,-24"/>
</g>
<g id="graph27" class="cluster"><title>cluster&#45;nid&#45;1a</title>
<polygon fill="none" stroke="#cccccc" points="376,-216 376,-308 821,-308 821,-216 376,-216"/>
</g>
<g id="graph28" class="cluster"><title>cluster&#45;nid&#45;1b</title>
<polygon fill="none" stroke="#cccccc" points="376,-116 376,-208 821,-208 821,-116 376,-116"/>
</g>
<g id="graph29" class="cluster"><title>cluster&#45;nid&#45;1c</title>
<polygon fill="none" stroke="#cccccc" points="1830,-186 1830,-278 2325,-278 2325,-186 1830,-186"/>
</g>
<g id="graph30" class="cluster"><title>cluster&#45;nid&#45;1d</title>
<polygon fill="none" stroke="#cccccc" points="1830,-8 1830,-100 2325,-100 2325,-8 1830,-8"/>
</g>
<g id="graph31" class="cluster"><title>cluster&#45;nid&#45;1e&#45;in</title>
<polygon fill="none" stroke="#cccccc" points="2936,-282 2936,-366 3138,-366 3138,-282 2936,-282"/>
</g>
<g id="graph33" class="cluster"><title>cluster&#45;nid&#45;1f&#45;in</title>
<polygon fill="none" stroke="#cccccc" points="2953,-190 2953,-274 3121,-274 3121,-190 2953,-190"/>
</g>
<g id="graph35" class="cluster"><title>cluster&#45;nid&#45;20&#45;in</title>
<polygon fill="none" stroke="#cccccc" points="2953,-98 2953,-182 3121,-182 3121,-98 2953,-98"/>
</g>
<g id="graph37" class="cluster"><title>cluster&#45;nid&#45;21</title>
<polygon fill="none" stroke="#cccccc" points="2212,-286 2212,-356 2368,-356 2368,-286 2212,-286"/>
</g>
<g id="graph38" class="cluster"><title>cluster&#45;nid&#45;22</title>
<polygon fill="none" stroke="#cccccc" points="2212,-108 2212,-178 2368,-178 2368,-108 2212,-108"/>
</g>
<g id="graph40" class="cluster"><title>cluster&#45;nid&#45;24</title>
<polygon fill="none" stroke="#cccccc" points="2589,-275 2589,-367 2715,-367 2715,-275 2589,-275"/>
</g>
<g id="graph41" class="cluster"><title>cluster&#45;nid&#45;25</title>
<polygon fill="none" stroke="#cccccc" points="2589,-97 2589,-189 2715,-189 2715,-97 2589,-97"/>
</g>
<g id="graph44" class="cluster"><title>cluster&#45;nid&#45;27&#45;out</title>
<polygon fill="none" stroke="#cccccc" points="702,-357 702,-441 870,-441 870,-357 702,-357"/>
</g>
<g id="graph45" class="cluster"><title>cluster&#45;nid&#45;28</title>
<polygon fill="none" stroke="#cccccc" points="1129,-712 1129,-766 1199,-766 1199,-712 1129,-712"/>
</g>
<!-- nid&#45;0a&#45;in -->
<g id="node2" class="node"><title>nid&#45;0a&#45;in</title>
<polygon fill="none" stroke="green" points="2004,-645 1834,-645 1834,-577 2004,-577 2004,-645"/>
<text text-anchor="middle" x="1919" y="-628.4" font-family="Times,serif" font-size="14.00">10</text>
<text text-anchor="middle" x="1919" y="-613.4" font-family="Times,serif" font-size="14.00">[Jack] HP Out at Ext Front</text>
<text text-anchor="middle" x="1919" y="-598.4" font-family="Times,serif" font-size="14.00">Stereo</text>
<text text-anchor="middle" x="1919" y="-583.4" font-family="Times,serif" font-size="14.00">OUT HP Detect</text>
</g>
<!-- nid&#45;10&#45;ampout -->
<g id="node4" class="node"><title>nid&#45;10&#45;ampout</title>
<polygon fill="none" stroke="#0000ff" points="813,-635 772.5,-653 772.5,-617 813,-635"/>
</g>
<!-- nid&#45;10&#45;ampout&#45;&gt;nid&#45;0a&#45;in -->
<g id="edge4" class="edge"><title>nid&#45;10&#45;ampout&#45;&gt;nid&#45;0a&#45;in</title>
<path fill="none" stroke="gray" stroke-dasharray="5,2" d="M811.793,-634.454C947.366,-631.582 1580.48,-618.171 1823.59,-613.021"/>
<polygon fill="gray" stroke="gray" points="1823.9,-616.515 1833.82,-612.804 1823.75,-609.517 1823.9,-616.515"/>
</g>
<!-- nid&#45;0d&#45;in -->
<g id="node17" class="node"><title>nid&#45;0d&#45;in</title>
<polygon fill="none" stroke="green" points="2003,-837 1835,-837 1835,-769 2003,-769 2003,-837"/>
<text text-anchor="middle" x="1919" y="-820.4" font-family="Times,serif" font-size="14.00">13</text>
<text text-anchor="middle" x="1919" y="-805.4" font-family="Times,serif" font-size="14.00">[Fixed] Speaker at Int N/A</text>
<text text-anchor="middle" x="1919" y="-790.4" font-family="Times,serif" font-size="14.00">Stereo</text>
<text text-anchor="middle" x="1919" y="-775.4" font-family="Times,serif" font-size="14.00">OUT Detect</text>
</g>
<!-- nid&#45;10&#45;ampout&#45;&gt;nid&#45;0d&#45;in -->
<g id="edge16" class="edge"><title>nid&#45;10&#45;ampout&#45;&gt;nid&#45;0d&#45;in</title>
<path fill="none" stroke="#333333" d="M806.633,-638.059C930.507,-656.427 1578.4,-752.496 1824.25,-788.951"/>
<polygon fill="#333333" stroke="#333333" points="1823.84,-792.428 1834.24,-790.432 1824.87,-785.503 1823.84,-792.428"/>
</g>
<!-- nid&#45;0f&#45;in -->
<g id="node26" class="node"><title>nid&#45;0f&#45;in</title>
<polygon fill="none" stroke="green" points="1994,-553 1844,-553 1844,-485 1994,-485 1994,-553"/>
<text text-anchor="middle" x="1919" y="-536.4" font-family="Times,serif" font-size="14.00">15</text>
<text text-anchor="middle" x="1919" y="-521.4" font-family="Times,serif" font-size="14.00">[N/A] Other at Ext N/A</text>
<text text-anchor="middle" x="1919" y="-506.4" font-family="Times,serif" font-size="14.00">Stereo</text>
<text text-anchor="middle" x="1919" y="-491.4" font-family="Times,serif" font-size="14.00">OUT Detect</text>
</g>
<!-- nid&#45;10&#45;ampout&#45;&gt;nid&#45;0f&#45;in -->
<g id="edge26" class="edge"><title>nid&#45;10&#45;ampout&#45;&gt;nid&#45;0f&#45;in</title>
<path fill="none" stroke="#333333" d="M809.77,-633.451C909.459,-626.844 1303.58,-599.635 1626,-562 1696,-553.829 1775.04,-542.081 1833.37,-532.928"/>
<polygon fill="#333333" stroke="#333333" points="1833.94,-536.381 1843.28,-531.367 1832.85,-529.466 1833.94,-536.381"/>
</g>
<!-- nid&#45;15 -->
<g id="node51" class="node"><title>nid&#45;15</title>
<polygon fill="none" stroke="black" points="1973.95,-745 1886.54,-745 1864.05,-669 1951.46,-669 1973.95,-745"/>
<text text-anchor="middle" x="1919" y="-709.4" font-family="Times,serif" font-size="14.00">21</text>
<text text-anchor="middle" x="1919" y="-694.4" font-family="Times,serif" font-size="14.00">Stereo</text>
</g>
<!-- nid&#45;10&#45;ampout&#45;&gt;nid&#45;15 -->
<g id="edge49" class="edge"><title>nid&#45;10&#45;ampout&#45;&gt;nid&#45;15</title>
<path fill="none" stroke="#333333" d="M809.664,-636.504C948.659,-645.337 1659.77,-690.527 1864.06,-703.508"/>
<polygon fill="#333333" stroke="#333333" points="1864.05,-707.015 1874.25,-704.156 1864.49,-700.029 1864.05,-707.015"/>
</g>
<!-- nid&#45;17&#45;ampin&#45;16 -->
<g id="node58" class="node"><title>nid&#45;17&#45;ampin&#45;16</title>
<polygon fill="none" stroke="#c8c8c8" points="1249.79,-463 1121.1,-486 1121.1,-440 1249.79,-463"/>
<text text-anchor="middle" x="1164" y="-457.9" font-family="Times,serif" font-size="14.00">0 (16)</text>
</g>
<!-- nid&#45;10&#45;ampout&#45;&gt;nid&#45;17&#45;ampin&#45;16 -->
<g id="edge69" class="edge"><title>nid&#45;10&#45;ampout&#45;&gt;nid&#45;17&#45;ampin&#45;16</title>
<path fill="none" stroke="#333333" d="M798.192,-628.273C837.059,-606.984 961.841,-539.847 1070,-495 1083.2,-489.527 1097.7,-484.244 1111.29,-479.601"/>
<polygon fill="#333333" stroke="#333333" points="1112.62,-482.846 1120.98,-476.34 1110.39,-476.211 1112.62,-482.846"/>
</g>
<!-- nid&#45;28 -->
<g id="node146" class="node"><title>nid&#45;28</title>
<polygon fill="none" stroke="black" points="1191,-758 1137,-758 1137,-720 1191,-720 1191,-758"/>
<text text-anchor="middle" x="1164" y="-741.4" font-family="Times,serif" font-size="14.00">40</text>
<text text-anchor="middle" x="1164" y="-726.4" font-family="Times,serif" font-size="14.00">Mono</text>
</g>
<!-- nid&#45;10&#45;ampout&#45;&gt;nid&#45;28 -->
<g id="edge162" class="edge"><title>nid&#45;10&#45;ampout&#45;&gt;nid&#45;28</title>
<path fill="none" stroke="gray" stroke-dasharray="5,2" d="M802.73,-639.603C859.73,-655.285 1047.24,-706.874 1127.27,-728.894"/>
<polygon fill="gray" stroke="gray" points="1126.36,-732.274 1136.93,-731.552 1128.22,-725.524 1126.36,-732.274"/>
</g>
<!-- nid&#45;11&#45;ampout -->
<g id="node6" class="node"><title>nid&#45;11&#45;ampout</title>
<polygon fill="none" stroke="#0000ff" points="813,-805 772.5,-823 772.5,-787 813,-805"/>
</g>
<!-- nid&#45;11&#45;ampout&#45;&gt;nid&#45;0a&#45;in -->
<g id="edge6" class="edge"><title>nid&#45;11&#45;ampout&#45;&gt;nid&#45;0a&#45;in</title>
<path fill="none" stroke="#333333" d="M808.856,-806.873C876.616,-811.975 1082.15,-824.177 1250,-800 1459.57,-769.814 1696.07,-692.245 1824.19,-646.409"/>
<polygon fill="#333333" stroke="#333333" points="1825.75,-649.567 1833.98,-642.893 1823.38,-642.979 1825.75,-649.567"/>
</g>
<!-- nid&#45;11&#45;ampout&#45;&gt;nid&#45;0d&#45;in -->
<g id="edge18" class="edge"><title>nid&#45;11&#45;ampout&#45;&gt;nid&#45;0d&#45;in</title>
<path fill="none" stroke="gray" stroke-dasharray="5,2" d="M801.448,-810.292C843.757,-824.472 965.332,-863.115 1070,-876 1315.26,-906.193 1380.73,-906.094 1626,-876 1693.51,-867.717 1767.85,-849.079 1824.76,-832.71"/>
<polygon fill="gray" stroke="gray" points="1825.83,-836.044 1834.45,-829.894 1823.87,-829.322 1825.83,-836.044"/>
</g>
<!-- nid&#45;11&#45;ampout&#45;&gt;nid&#45;0f&#45;in -->
<g id="edge28" class="edge"><title>nid&#45;11&#45;ampout&#45;&gt;nid&#45;0f&#45;in</title>
<path fill="none" stroke="gray" stroke-dasharray="5,2" d="M811.77,-805.591C882.645,-806.678 1086.11,-806.152 1250,-770 1365.69,-744.48 1681.15,-617.319 1833.89,-554.391"/>
<polygon fill="gray" stroke="gray" points="1835.36,-557.572 1843.27,-550.524 1832.69,-551.101 1835.36,-557.572"/>
</g>
<!-- nid&#45;11&#45;ampout&#45;&gt;nid&#45;15 -->
<g id="edge51" class="edge"><title>nid&#45;11&#45;ampout&#45;&gt;nid&#45;15</title>
<path fill="none" stroke="gray" stroke-dasharray="5,2" d="M806.248,-808.169C852.712,-815.263 970.644,-832.247 1070,-838 1149.87,-842.625 1170.37,-845.723 1250,-838 1483.89,-815.316 1757.41,-749.017 1868.39,-720.403"/>
<polygon fill="gray" stroke="gray" points="1869.5,-723.731 1878.3,-717.836 1867.74,-716.955 1869.5,-723.731"/>
</g>
<!-- nid&#45;17&#45;ampin&#45;17 -->
<g id="node60" class="node"><title>nid&#45;17&#45;ampin&#45;17</title>
<polygon fill="none" stroke="#c8c8c8" points="1247.99,-527 1122,-550 1122,-504 1247.99,-527"/>
<text text-anchor="middle" x="1164" y="-521.9" font-family="Times,serif" font-size="14.00">1 (17)</text>
</g>
<!-- nid&#45;11&#45;ampout&#45;&gt;nid&#45;17&#45;ampin&#45;17 -->
<g id="edge71" class="edge"><title>nid&#45;11&#45;ampout&#45;&gt;nid&#45;17&#45;ampin&#45;17</title>
<path fill="none" stroke="#333333" d="M796.504,-797.275C844.633,-761.878 1045.28,-614.315 1128.05,-553.439"/>
<polygon fill="#333333" stroke="#333333" points="1130.17,-556.226 1136.15,-547.481 1126.02,-550.586 1130.17,-556.226"/>
</g>
<!-- nid&#45;11&#45;ampout&#45;&gt;nid&#45;28 -->
<g id="edge164" class="edge"><title>nid&#45;11&#45;ampout&#45;&gt;nid&#45;28</title>
<path fill="none" stroke="gray" stroke-dasharray="5,2" d="M805.527,-801.591C865.498,-791.119 1047.73,-759.301 1126.77,-745.501"/>
<polygon fill="gray" stroke="gray" points="1127.52,-748.922 1136.77,-743.754 1126.32,-742.027 1127.52,-748.922"/>
</g>
<!-- nid&#45;17 -->
<g id="node8" class="node"><title>nid&#45;17</title>
<polygon fill="none" stroke="black" points="1584.78,-431 1563.39,-462.027 1520.61,-462.027 1499.22,-431 1520.61,-399.973 1563.39,-399.973 1584.78,-431"/>
<text text-anchor="middle" x="1542" y="-433.4" font-family="Times,serif" font-size="14.00">23</text>
<text text-anchor="middle" x="1542" y="-418.4" font-family="Times,serif" font-size="14.00">Stereo</text>
</g>
<!-- nid&#45;17&#45;&gt;nid&#45;0a&#45;in -->
<g id="edge8" class="edge"><title>nid&#45;17&#45;&gt;nid&#45;0a&#45;in</title>
<path fill="none" stroke="gray" stroke-dasharray="5,2" d="M1574.47,-446.502C1632.6,-474.256 1756.04,-533.193 1838.27,-572.456"/>
<polygon fill="gray" stroke="gray" points="1837.06,-575.754 1847.59,-576.904 1840.07,-569.437 1837.06,-575.754"/>
</g>
<!-- nid&#45;17&#45;&gt;nid&#45;0d&#45;in -->
<g id="edge20" class="edge"><title>nid&#45;17&#45;&gt;nid&#45;0d&#45;in</title>
<path fill="none" stroke="gray" stroke-dasharray="5,2" d="M1562.61,-462.005C1605.44,-524.531 1709.78,-667.406 1826,-757 1828.8,-759.155 1831.71,-761.249 1834.7,-763.28"/>
<polygon fill="gray" stroke="gray" points="1833.03,-766.365 1843.33,-768.831 1836.82,-760.478 1833.03,-766.365"/>
</g>
<!-- nid&#45;17&#45;&gt;nid&#45;0f&#45;in -->
<g id="edge30" class="edge"><title>nid&#45;17&#45;&gt;nid&#45;0f&#45;in</title>
<path fill="none" stroke="gray" stroke-dasharray="5,2" d="M1579.53,-439.759C1638.29,-453.476 1753.54,-480.377 1833.34,-499.006"/>
<polygon fill="gray" stroke="gray" points="1832.85,-502.484 1843.38,-501.349 1834.44,-495.667 1832.85,-502.484"/>
</g>
<!-- nid&#45;17&#45;&gt;nid&#45;15 -->
<g id="edge53" class="edge"><title>nid&#45;17&#45;&gt;nid&#45;15</title>
<path fill="none" stroke="gray" stroke-dasharray="5,2" d="M1568.96,-455.182C1618.02,-498.538 1726.04,-591.116 1826,-657 1836.27,-663.766 1847.54,-670.419 1858.58,-676.553"/>
<polygon fill="gray" stroke="gray" points="1856.91,-679.63 1867.36,-681.354 1860.27,-673.487 1856.91,-679.63"/>
</g>
<!-- nid&#45;1c -->
<g id="node101" class="node"><title>nid&#45;1c</title>
<polygon fill="none" stroke="black" points="1999.87,-270 1871.23,-270 1838.13,-194 1966.77,-194 1999.87,-270"/>
<text text-anchor="middle" x="1919" y="-234.4" font-family="Times,serif" font-size="14.00">28</text>
<text text-anchor="middle" x="1919" y="-219.4" font-family="Times,serif" font-size="14.00">Stereo R/L</text>
</g>
<!-- nid&#45;17&#45;&gt;nid&#45;1c -->
<g id="edge110" class="edge"><title>nid&#45;17&#45;&gt;nid&#45;1c</title>
<path fill="none" stroke="gray" stroke-dasharray="5,2" d="M1573.82,-414.205C1636.38,-381.182 1776.36,-307.295 1857.54,-264.444"/>
<polygon fill="gray" stroke="gray" points="1859.44,-267.395 1866.65,-259.632 1856.18,-261.205 1859.44,-267.395"/>
</g>
<!-- nid&#45;1d -->
<g id="node108" class="node"><title>nid&#45;1d</title>
<polygon fill="none" stroke="black" points="1999.87,-92 1871.23,-92 1838.13,-16 1966.77,-16 1999.87,-92"/>
<text text-anchor="middle" x="1919" y="-56.4" font-family="Times,serif" font-size="14.00">29</text>
<text text-anchor="middle" x="1919" y="-41.4" font-family="Times,serif" font-size="14.00">Stereo R/L</text>
</g>
<!-- nid&#45;17&#45;&gt;nid&#45;1d -->
<g id="edge121" class="edge"><title>nid&#45;17&#45;&gt;nid&#45;1d</title>
<path fill="none" stroke="gray" stroke-dasharray="5,2" d="M1567.62,-405.384C1630.55,-342.449 1793.43,-179.569 1873.38,-99.624"/>
<polygon fill="gray" stroke="gray" points="1876.25,-101.698 1880.85,-92.1524 1871.3,-96.7487 1876.25,-101.698"/>
</g>
<!-- nid&#45;0b&#45;out -->
<g id="node12" class="node"><title>nid&#45;0b&#45;out</title>
<polygon fill="none" stroke="green" points="167,-246 17,-246 17,-178 167,-178 167,-246"/>
<text text-anchor="middle" x="92" y="-229.4" font-family="Times,serif" font-size="14.00">11</text>
<text text-anchor="middle" x="92" y="-214.4" font-family="Times,serif" font-size="14.00">[Jack] Mic at Ext Front</text>
<text text-anchor="middle" x="92" y="-199.4" font-family="Times,serif" font-size="14.00">Stereo</text>
<text text-anchor="middle" x="92" y="-184.4" font-family="Times,serif" font-size="14.00">IN Detect</text>
</g>
<!-- nid&#45;1a -->
<g id="node89" class="node"><title>nid&#45;1a</title>
<polygon fill="none" stroke="black" points="493.948,-300 406.538,-300 384.052,-224 471.462,-224 493.948,-300"/>
<text text-anchor="middle" x="439" y="-264.4" font-family="Times,serif" font-size="14.00">26</text>
<text text-anchor="middle" x="439" y="-249.4" font-family="Times,serif" font-size="14.00">Stereo</text>
</g>
<!-- nid&#45;0b&#45;out&#45;&gt;nid&#45;1a -->
<g id="edge90" class="edge"><title>nid&#45;0b&#45;out&#45;&gt;nid&#45;1a</title>
<path fill="none" stroke="#333333" d="M167.722,-222.911C232.624,-232.263 324.629,-245.52 383.055,-253.939"/>
<polygon fill="#333333" stroke="#333333" points="382.806,-257.439 393.203,-255.401 383.804,-250.51 382.806,-257.439"/>
</g>
<!-- nid&#45;1b -->
<g id="node95" class="node"><title>nid&#45;1b</title>
<polygon fill="none" stroke="black" points="493.948,-200 406.538,-200 384.052,-124 471.462,-124 493.948,-200"/>
<text text-anchor="middle" x="439" y="-164.4" font-family="Times,serif" font-size="14.00">27</text>
<text text-anchor="middle" x="439" y="-149.4" font-family="Times,serif" font-size="14.00">Stereo</text>
</g>
<!-- nid&#45;0b&#45;out&#45;&gt;nid&#45;1b -->
<g id="edge99" class="edge"><title>nid&#45;0b&#45;out&#45;&gt;nid&#45;1b</title>
<path fill="none" stroke="#333333" d="M167.722,-201.089C233.94,-191.547 328.373,-177.94 386.57,-169.555"/>
<polygon fill="#333333" stroke="#333333" points="387.248,-172.993 396.646,-168.103 386.249,-166.065 387.248,-172.993"/>
</g>
<!-- nid&#45;0c&#45;out -->
<g id="node15" class="node"><title>nid&#45;0c&#45;out</title>
<polygon fill="none" stroke="green" points="167,-154 17,-154 17,-86 167,-86 167,-154"/>
<text text-anchor="middle" x="92" y="-137.4" font-family="Times,serif" font-size="14.00">12</text>
<text text-anchor="middle" x="92" y="-122.4" font-family="Times,serif" font-size="14.00">[N/A] Other at Ext N/A</text>
<text text-anchor="middle" x="92" y="-107.4" font-family="Times,serif" font-size="14.00">Stereo</text>
<text text-anchor="middle" x="92" y="-92.4" font-family="Times,serif" font-size="14.00">IN Detect</text>
</g>
<!-- nid&#45;0c&#45;out&#45;&gt;nid&#45;1a -->
<g id="edge92" class="edge"><title>nid&#45;0c&#45;out&#45;&gt;nid&#45;1a</title>
<path fill="none" stroke="gray" stroke-dasharray="5,2" d="M167.722,-150.987C231.381,-177.038 321.116,-213.759 379.663,-237.718"/>
<polygon fill="gray" stroke="gray" points="378.561,-241.049 389.141,-241.597 381.212,-234.57 378.561,-241.049"/>
</g>
<!-- nid&#45;0c&#45;out&#45;&gt;nid&#45;1b -->
<g id="edge101" class="edge"><title>nid&#45;0c&#45;out&#45;&gt;nid&#45;1b</title>
<path fill="none" stroke="gray" stroke-dasharray="5,2" d="M167.722,-129.165C232.624,-137.021 324.629,-148.157 383.055,-155.229"/>
<polygon fill="gray" stroke="gray" points="382.855,-158.73 393.203,-156.457 383.696,-151.781 382.855,-158.73"/>
</g>
<!-- nid&#45;0e&#45;out -->
<g id="node24" class="node"><title>nid&#45;0e&#45;out</title>
<polygon fill="none" stroke="green" points="167,-338 17,-338 17,-270 167,-270 167,-338"/>
<text text-anchor="middle" x="92" y="-321.4" font-family="Times,serif" font-size="14.00">14</text>
<text text-anchor="middle" x="92" y="-306.4" font-family="Times,serif" font-size="14.00">[N/A] Other at Ext N/A</text>
<text text-anchor="middle" x="92" y="-291.4" font-family="Times,serif" font-size="14.00">Stereo</text>
<text text-anchor="middle" x="92" y="-276.4" font-family="Times,serif" font-size="14.00">IN Detect</text>
</g>
<!-- nid&#45;0e&#45;out&#45;&gt;nid&#45;1a -->
<g id="edge94" class="edge"><title>nid&#45;0e&#45;out&#45;&gt;nid&#45;1a</title>
<path fill="none" stroke="gray" stroke-dasharray="5,2" d="M167.722,-294.835C233.94,-286.82 328.373,-275.39 386.57,-268.346"/>
<polygon fill="gray" stroke="gray" points="387.139,-271.803 396.646,-267.126 386.298,-264.853 387.139,-271.803"/>
</g>
<!-- nid&#45;0e&#45;out&#45;&gt;nid&#45;1b -->
<g id="edge103" class="edge"><title>nid&#45;0e&#45;out&#45;&gt;nid&#45;1b</title>
<path fill="none" stroke="gray" stroke-dasharray="5,2" d="M167.722,-273.013C235.537,-245.262 332.943,-205.401 390.715,-181.759"/>
<polygon fill="gray" stroke="gray" points="392.053,-184.993 399.983,-177.967 389.402,-178.515 392.053,-184.993"/>
</g>
<!-- nid&#45;10 -->
<g id="node32" class="node"><title>nid&#45;10</title>
<ellipse fill="none" stroke="blue" cx="439" cy="-635" rx="55.1543" ry="26.8701"/>
<text text-anchor="middle" x="439" y="-637.4" font-family="Times,serif" font-size="14.00">16</text>
<text text-anchor="middle" x="439" y="-622.4" font-family="Times,serif" font-size="14.00">Stereo R/L</text>
</g>
<!-- nid&#45;10&#45;&gt;nid&#45;10&#45;ampout -->
<g id="edge33" class="edge"><title>nid&#45;10&#45;&gt;nid&#45;10&#45;ampout</title>
<path fill="none" stroke="#0000ff" d="M494.367,-635C573.752,-635 715.973,-635 767.071,-635"/>
<polygon fill="#0000ff" stroke="#0000ff" points="767.286,-636.75 772.286,-635 767.286,-633.25 767.286,-636.75"/>
</g>
<!-- nid&#45;11 -->
<g id="node35" class="node"><title>nid&#45;11</title>
<ellipse fill="none" stroke="blue" cx="439" cy="-805" rx="55.1543" ry="26.8701"/>
<text text-anchor="middle" x="439" y="-807.4" font-family="Times,serif" font-size="14.00">17</text>
<text text-anchor="middle" x="439" y="-792.4" font-family="Times,serif" font-size="14.00">Stereo R/L</text>
</g>
<!-- nid&#45;11&#45;&gt;nid&#45;11&#45;ampout -->
<g id="edge36" class="edge"><title>nid&#45;11&#45;&gt;nid&#45;11&#45;ampout</title>
<path fill="none" stroke="#0000ff" d="M494.367,-805C573.752,-805 715.973,-805 767.071,-805"/>
<polygon fill="#0000ff" stroke="#0000ff" points="767.286,-806.75 772.286,-805 767.286,-803.25 767.286,-806.75"/>
</g>
<!-- nid&#45;12 -->
<g id="node38" class="node"><title>nid&#45;12</title>
<ellipse fill="none" stroke="red" cx="2652" cy="-232" rx="36.977" ry="26.8701"/>
<text text-anchor="middle" x="2652" y="-234.4" font-family="Times,serif" font-size="14.00">18</text>
<text text-anchor="middle" x="2652" y="-219.4" font-family="Times,serif" font-size="14.00">Stereo</text>
</g>
<!-- nid&#45;1c&#45;ampout -->
<g id="node39" class="node"><title>nid&#45;1c&#45;ampout</title>
<polygon fill="none" stroke="#c8c8c8" points="2317,-232 2276.5,-250 2276.5,-214 2317,-232"/>
</g>
<!-- nid&#45;1c&#45;ampout&#45;&gt;nid&#45;12 -->
<g id="edge39" class="edge"><title>nid&#45;1c&#45;ampout&#45;&gt;nid&#45;12</title>
<path fill="none" stroke="#333333" d="M2317.21,-232C2378.3,-232 2527.01,-232 2604.02,-232"/>
<polygon fill="#333333" stroke="#333333" points="2604.39,-235.5 2614.39,-232 2604.39,-228.5 2604.39,-235.5"/>
</g>
<!-- nid&#45;24 -->
<g id="node117" class="node"><title>nid&#45;24</title>
<polygon fill="none" stroke="black" points="2706.95,-359 2619.54,-359 2597.05,-283 2684.46,-283 2706.95,-359"/>
<text text-anchor="middle" x="2652" y="-323.4" font-family="Times,serif" font-size="14.00">36</text>
<text text-anchor="middle" x="2652" y="-308.4" font-family="Times,serif" font-size="14.00">Stereo</text>
</g>
<!-- nid&#45;1c&#45;ampout&#45;&gt;nid&#45;24 -->
<g id="edge147" class="edge"><title>nid&#45;1c&#45;ampout&#45;&gt;nid&#45;24</title>
<path fill="none" stroke="gray" stroke-dasharray="5,2" d="M2307.46,-236.293C2358.83,-248.922 2511.08,-286.355 2594.97,-306.978"/>
<polygon fill="gray" stroke="gray" points="2594.3,-310.418 2604.85,-309.407 2595.97,-303.621 2594.3,-310.418"/>
</g>
<!-- nid&#45;25 -->
<g id="node123" class="node"><title>nid&#45;25</title>
<polygon fill="none" stroke="black" points="2706.95,-181 2619.54,-181 2597.05,-105 2684.46,-105 2706.95,-181"/>
<text text-anchor="middle" x="2652" y="-145.4" font-family="Times,serif" font-size="14.00">37</text>
<text text-anchor="middle" x="2652" y="-130.4" font-family="Times,serif" font-size="14.00">Stereo</text>
</g>
<!-- nid&#45;1c&#45;ampout&#45;&gt;nid&#45;25 -->
<g id="edge154" class="edge"><title>nid&#45;1c&#45;ampout&#45;&gt;nid&#45;25</title>
<path fill="none" stroke="gray" stroke-dasharray="5,2" d="M2307.46,-227.707C2360.13,-214.758 2518.88,-175.729 2601.22,-155.485"/>
<polygon fill="gray" stroke="gray" points="2602.23,-158.84 2611.11,-153.053 2600.56,-152.042 2602.23,-158.84"/>
</g>
<!-- nid&#45;13 -->
<g id="node42" class="node"><title>nid&#45;13</title>
<ellipse fill="none" stroke="red" cx="2652" cy="-54" rx="36.977" ry="26.8701"/>
<text text-anchor="middle" x="2652" y="-56.4" font-family="Times,serif" font-size="14.00">19</text>
<text text-anchor="middle" x="2652" y="-41.4" font-family="Times,serif" font-size="14.00">Stereo</text>
</g>
<!-- nid&#45;1d&#45;ampout -->
<g id="node43" class="node"><title>nid&#45;1d&#45;ampout</title>
<polygon fill="none" stroke="#c8c8c8" points="2317,-54 2276.5,-72 2276.5,-36 2317,-54"/>
</g>
<!-- nid&#45;1d&#45;ampout&#45;&gt;nid&#45;13 -->
<g id="edge42" class="edge"><title>nid&#45;1d&#45;ampout&#45;&gt;nid&#45;13</title>
<path fill="none" stroke="#333333" d="M2317.21,-54C2378.3,-54 2527.01,-54 2604.02,-54"/>
<polygon fill="#333333" stroke="#333333" points="2604.39,-57.5001 2614.39,-54 2604.39,-50.5001 2604.39,-57.5001"/>
</g>
<!-- nid&#45;1d&#45;ampout&#45;&gt;nid&#45;24 -->
<g id="edge149" class="edge"><title>nid&#45;1d&#45;ampout&#45;&gt;nid&#45;24</title>
<path fill="none" stroke="gray" stroke-dasharray="5,2" d="M2301.67,-60.8489C2317.19,-70.0992 2345.3,-87.3508 2368,-104 2461.37,-172.494 2473.5,-204.062 2568,-271 2575.07,-276.006 2582.65,-281.003 2590.27,-285.796"/>
<polygon fill="gray" stroke="gray" points="2588.86,-289.035 2599.2,-291.317 2592.54,-283.081 2588.86,-289.035"/>
</g>
<!-- nid&#45;1d&#45;ampout&#45;&gt;nid&#45;25 -->
<g id="edge156" class="edge"><title>nid&#45;1d&#45;ampout&#45;&gt;nid&#45;25</title>
<path fill="none" stroke="gray" stroke-dasharray="5,2" d="M2307.46,-58.2927C2358.83,-70.9219 2511.08,-108.355 2594.97,-128.978"/>
<polygon fill="gray" stroke="gray" points="2594.3,-132.418 2604.85,-131.407 2595.97,-125.621 2594.3,-132.418"/>
</g>
<!-- nid&#45;14&#45;in -->
<g id="node46" class="node"><title>nid&#45;14&#45;in</title>
<polygon fill="none" stroke="green" points="2727,-741 2577,-741 2577,-673 2727,-673 2727,-741"/>
<text text-anchor="middle" x="2652" y="-724.4" font-family="Times,serif" font-size="14.00">20</text>
<text text-anchor="middle" x="2652" y="-709.4" font-family="Times,serif" font-size="14.00">[N/A] Other at Ext N/A</text>
<text text-anchor="middle" x="2652" y="-694.4" font-family="Times,serif" font-size="14.00">Mono</text>
<text text-anchor="middle" x="2652" y="-679.4" font-family="Times,serif" font-size="14.00">OUT</text>
</g>
<!-- nid&#45;16 -->
<g id="node48" class="node"><title>nid&#45;16</title>
<polygon fill="none" stroke="black" points="2331.14,-707 2310.57,-738.027 2269.43,-738.027 2248.86,-707 2269.43,-675.973 2310.57,-675.973 2331.14,-707"/>
<text text-anchor="middle" x="2290" y="-709.4" font-family="Times,serif" font-size="14.00">22</text>
<text text-anchor="middle" x="2290" y="-694.4" font-family="Times,serif" font-size="14.00">Mono</text>
</g>
<!-- nid&#45;16&#45;&gt;nid&#45;14&#45;in -->
<g id="edge46" class="edge"><title>nid&#45;16&#45;&gt;nid&#45;14&#45;in</title>
<path fill="none" stroke="#333333" d="M2331.53,-707C2388.46,-707 2492.12,-707 2566.13,-707"/>
<polygon fill="#333333" stroke="#333333" points="2566.37,-710.5 2576.37,-707 2566.37,-703.5 2566.37,-710.5"/>
</g>
<!-- nid&#45;15&#45;&gt;nid&#45;16 -->
<g id="edge56" class="edge"><title>nid&#45;15&#45;&gt;nid&#45;16</title>
<path fill="none" stroke="#333333" d="M1963.02,-707C2031.8,-707 2164.49,-707 2237.93,-707"/>
<polygon fill="#333333" stroke="#333333" points="2238.32,-710.5 2248.32,-707 2238.32,-703.5 2238.32,-710.5"/>
</g>
<!-- nid&#45;17&#45;ampin&#45;16&#45;&gt;nid&#45;17 -->
<g id="edge59" class="edge"><title>nid&#45;17&#45;ampin&#45;16&#45;&gt;nid&#45;17</title>
<path fill="none" stroke="#c8c8c8" d="M1222.23,-458.07C1297.42,-451.705 1426.75,-440.756 1495.64,-434.924"/>
<polygon fill="#c8c8c8" stroke="#c8c8c8" points="1496.07,-436.645 1500.9,-434.479 1495.77,-433.157 1496.07,-436.645"/>
</g>
<!-- nid&#45;17&#45;ampin&#45;17&#45;&gt;nid&#45;17 -->
<g id="edge61" class="edge"><title>nid&#45;17&#45;ampin&#45;17&#45;&gt;nid&#45;17</title>
<path fill="none" stroke="#c8c8c8" d="M1199.22,-518.055C1269.03,-500.327 1424.65,-460.803 1499.79,-441.719"/>
<polygon fill="#c8c8c8" stroke="#c8c8c8" points="1500.65,-443.308 1505.06,-440.381 1499.79,-439.915 1500.65,-443.308"/>
</g>
<!-- nid&#45;17&#45;ampin&#45;39 -->
<g id="node62" class="node"><title>nid&#45;17&#45;ampin&#45;39</title>
<polygon fill="none" stroke="#c8c8c8" points="1247.99,-399 1122,-422 1122,-376 1247.99,-399"/>
<text text-anchor="middle" x="1164" y="-393.9" font-family="Times,serif" font-size="14.00">2 (39)</text>
</g>
<!-- nid&#45;17&#45;ampin&#45;39&#45;&gt;nid&#45;17 -->
<g id="edge63" class="edge"><title>nid&#45;17&#45;ampin&#45;39&#45;&gt;nid&#45;17</title>
<path fill="none" stroke="#c8c8c8" d="M1221.82,-403.895C1297,-410.26 1426.84,-421.251 1495.81,-427.09"/>
<polygon fill="#c8c8c8" stroke="#c8c8c8" points="1495.95,-428.857 1501.08,-427.535 1496.24,-425.37 1495.95,-428.857"/>
</g>
<!-- nid&#45;17&#45;ampin&#45;26 -->
<g id="node64" class="node"><title>nid&#45;17&#45;ampin&#45;26</title>
<polygon fill="none" stroke="#c8c8c8" points="1247.19,-335 1122.4,-358 1122.4,-312 1247.19,-335"/>
<text text-anchor="middle" x="1164" y="-329.9" font-family="Times,serif" font-size="14.00">3 (26)</text>
</g>
<!-- nid&#45;17&#45;ampin&#45;26&#45;&gt;nid&#45;17 -->
<g id="edge65" class="edge"><title>nid&#45;17&#45;ampin&#45;26&#45;&gt;nid&#45;17</title>
<path fill="none" stroke="#c8c8c8" d="M1199.22,-343.945C1269.03,-361.673 1424.65,-401.197 1499.79,-420.281"/>
<polygon fill="#c8c8c8" stroke="#c8c8c8" points="1499.79,-422.085 1505.06,-421.619 1500.65,-418.692 1499.79,-422.085"/>
</g>
<!-- nid&#45;17&#45;ampin&#45;27 -->
<g id="node66" class="node"><title>nid&#45;17&#45;ampin&#45;27</title>
<polygon fill="none" stroke="#c8c8c8" points="1249.79,-271 1121.1,-294 1121.1,-248 1249.79,-271"/>
<text text-anchor="middle" x="1164" y="-265.9" font-family="Times,serif" font-size="14.00">4 (27)</text>
</g>
<!-- nid&#45;17&#45;ampin&#45;27&#45;&gt;nid&#45;17 -->
<g id="edge67" class="edge"><title>nid&#45;17&#45;ampin&#45;27&#45;&gt;nid&#45;17</title>
<path fill="none" stroke="#c8c8c8" d="M1192.82,-281.261C1209.6,-287.348 1231.1,-295.348 1250,-303 1342.14,-340.3 1448.7,-388.256 1504.1,-413.563"/>
<polygon fill="#c8c8c8" stroke="#c8c8c8" points="1503.7,-415.304 1508.98,-415.791 1505.16,-412.121 1503.7,-415.304"/>
</g>
<!-- nid&#45;27&#45;out -->
<g id="node70" class="node"><title>nid&#45;27&#45;out</title>
<polygon fill="none" stroke="green" points="861,-433 711,-433 711,-365 861,-365 861,-433"/>
<text text-anchor="middle" x="786" y="-416.4" font-family="Times,serif" font-size="14.00">39</text>
<text text-anchor="middle" x="786" y="-401.4" font-family="Times,serif" font-size="14.00">[N/A] Other at Ext N/A</text>
<text text-anchor="middle" x="786" y="-386.4" font-family="Times,serif" font-size="14.00">Mono</text>
<text text-anchor="middle" x="786" y="-371.4" font-family="Times,serif" font-size="14.00">IN</text>
</g>
<!-- nid&#45;27&#45;out&#45;&gt;nid&#45;17&#45;ampin&#45;39 -->
<g id="edge73" class="edge"><title>nid&#45;27&#45;out&#45;&gt;nid&#45;17&#45;ampin&#45;39</title>
<path fill="none" stroke="#333333" d="M861.585,-399C935.72,-399 1046.8,-399 1111.68,-399"/>
<polygon fill="#333333" stroke="#333333" points="1111.68,-402.5 1121.68,-399 1111.68,-395.5 1111.68,-402.5"/>
</g>
<!-- nid&#45;1a&#45;ampout -->
<g id="node72" class="node"><title>nid&#45;1a&#45;ampout</title>
<polygon fill="none" stroke="#0000ff" points="813,-262 772.5,-280 772.5,-244 813,-262"/>
</g>
<!-- nid&#45;1a&#45;ampout&#45;&gt;nid&#45;17&#45;ampin&#45;26 -->
<g id="edge75" class="edge"><title>nid&#45;1a&#45;ampout&#45;&gt;nid&#45;17&#45;ampin&#45;26</title>
<path fill="none" stroke="#333333" d="M805.004,-265.67C861.039,-276.492 1026.99,-308.541 1112.22,-325"/>
<polygon fill="#333333" stroke="#333333" points="1111.71,-328.467 1122.2,-326.927 1113.04,-321.594 1111.71,-328.467"/>
</g>
<!-- nid&#45;1a&#45;ampout&#45;&gt;nid&#45;1c -->
<g id="edge108" class="edge"><title>nid&#45;1a&#45;ampout&#45;&gt;nid&#45;1c</title>
<path fill="none" stroke="gray" stroke-dasharray="5,2" d="M807.332,-259.41C854.564,-253.816 971.585,-240.728 1070,-236 1355.4,-222.29 1695.38,-227.049 1843.64,-230.168"/>
<polygon fill="gray" stroke="gray" points="1843.9,-233.675 1853.98,-230.39 1844.05,-226.676 1843.9,-233.675"/>
</g>
<!-- nid&#45;1b&#45;ampout -->
<g id="node74" class="node"><title>nid&#45;1b&#45;ampout</title>
<polygon fill="none" stroke="#0000ff" points="813,-162 772.5,-180 772.5,-144 813,-162"/>
</g>
<!-- nid&#45;1b&#45;ampout&#45;&gt;nid&#45;17&#45;ampin&#45;27 -->
<g id="edge77" class="edge"><title>nid&#45;1b&#45;ampout&#45;&gt;nid&#45;17&#45;ampin&#45;27</title>
<path fill="none" stroke="#333333" d="M802.73,-166.824C856.248,-182.257 1024.81,-230.864 1111.45,-255.847"/>
<polygon fill="#333333" stroke="#333333" points="1110.51,-259.219 1121.09,-258.627 1112.45,-252.493 1110.51,-259.219"/>
</g>
<!-- nid&#45;1b&#45;ampout&#45;&gt;nid&#45;1d -->
<g id="edge119" class="edge"><title>nid&#45;1b&#45;ampout&#45;&gt;nid&#45;1d</title>
<path fill="none" stroke="#333333" d="M802.422,-157.2C877.086,-135.659 1192.34,-47.7615 1458,-20 1532.26,-12.2395 1551.46,-15.6895 1626,-20 1698.73,-24.2059 1781.12,-34.2379 1839.96,-42.3213"/>
<polygon fill="#333333" stroke="#333333" points="1839.55,-45.797 1849.93,-43.7032 1840.51,-38.8633 1839.55,-45.797"/>
</g>
<!-- nid&#45;18&#45;ampout -->
<g id="node77" class="node"><title>nid&#45;18&#45;ampout</title>
<polygon fill="none" stroke="#0000ff" points="466,-874 425.5,-892 425.5,-856 466,-874"/>
</g>
<!-- nid&#45;18&#45;in -->
<g id="node78" class="node"><title>nid&#45;18&#45;in</title>
<ellipse fill="none" stroke="black" cx="92" cy="-874" rx="46.1459" ry="18"/>
<text text-anchor="middle" x="92" y="-868.9" font-family="Times,serif" font-size="14.00">nid&#45;18&#45;in</text>
</g>
<!-- nid&#45;18&#45;in&#45;&gt;nid&#45;18&#45;ampout -->
<g id="edge80" class="edge"><title>nid&#45;18&#45;in&#45;&gt;nid&#45;18&#45;ampout</title>
<path fill="none" stroke="#0000ff" d="M138.079,-874C215.255,-874 367.397,-874 420.325,-874"/>
<polygon fill="#0000ff" stroke="#0000ff" points="420.42,-875.75 425.42,-874 420.42,-872.25 420.42,-875.75"/>
</g>
<!-- nid&#45;18&#45;out -->
<g id="node81" class="node"><title>nid&#45;18&#45;out</title>
<polygon fill="none" stroke="green" points="1618,-192 1466,-192 1466,-124 1618,-124 1618,-192"/>
<text text-anchor="middle" x="1542" y="-175.4" font-family="Times,serif" font-size="14.00">24</text>
<text text-anchor="middle" x="1542" y="-160.4" font-family="Times,serif" font-size="14.00">[Fixed] Mic at Ext Top</text>
<text text-anchor="middle" x="1542" y="-145.4" font-family="Times,serif" font-size="14.00">Stereo</text>
<text text-anchor="middle" x="1542" y="-130.4" font-family="Times,serif" font-size="14.00">IN</text>
</g>
<!-- nid&#45;18&#45;out&#45;&gt;nid&#45;1c -->
<g id="edge112" class="edge"><title>nid&#45;18&#45;out&#45;&gt;nid&#45;1c</title>
<path fill="none" stroke="#333333" d="M1618.29,-172.975C1682.35,-185.548 1773.58,-203.457 1838.73,-216.245"/>
<polygon fill="#333333" stroke="#333333" points="1838.07,-219.68 1848.55,-218.172 1839.41,-212.811 1838.07,-219.68"/>
</g>
<!-- nid&#45;18&#45;out&#45;&gt;nid&#45;1d -->
<g id="edge123" class="edge"><title>nid&#45;18&#45;out&#45;&gt;nid&#45;1d</title>
<path fill="none" stroke="gray" stroke-dasharray="5,2" d="M1618.29,-136.954C1686.65,-118.098 1785.95,-90.7038 1851.48,-72.627"/>
<polygon fill="gray" stroke="gray" points="1852.58,-75.9525 1861.29,-69.9192 1850.72,-69.2046 1852.58,-75.9525"/>
</g>
<!-- nid&#45;19&#45;ampout -->
<g id="node83" class="node"><title>nid&#45;19&#45;ampout</title>
<polygon fill="none" stroke="#0000ff" points="466,-934 425.5,-952 425.5,-916 466,-934"/>
</g>
<!-- nid&#45;19&#45;in -->
<g id="node84" class="node"><title>nid&#45;19&#45;in</title>
<ellipse fill="none" stroke="black" cx="92" cy="-934" rx="46.1459" ry="18"/>
<text text-anchor="middle" x="92" y="-928.9" font-family="Times,serif" font-size="14.00">nid&#45;19&#45;in</text>
</g>
<!-- nid&#45;19&#45;in&#45;&gt;nid&#45;19&#45;ampout -->
<g id="edge84" class="edge"><title>nid&#45;19&#45;in&#45;&gt;nid&#45;19&#45;ampout</title>
<path fill="none" stroke="#0000ff" d="M138.079,-934C215.255,-934 367.397,-934 420.325,-934"/>
<polygon fill="#0000ff" stroke="#0000ff" points="420.42,-935.75 425.42,-934 420.42,-932.25 420.42,-935.75"/>
</g>
<!-- nid&#45;19&#45;out -->
<g id="node87" class="node"><title>nid&#45;19&#45;out</title>
<polygon fill="none" stroke="green" points="1617,-100 1467,-100 1467,-32 1617,-32 1617,-100"/>
<text text-anchor="middle" x="1542" y="-83.4" font-family="Times,serif" font-size="14.00">25</text>
<text text-anchor="middle" x="1542" y="-68.4" font-family="Times,serif" font-size="14.00">[N/A] Other at Ext N/A</text>
<text text-anchor="middle" x="1542" y="-53.4" font-family="Times,serif" font-size="14.00">Stereo</text>
<text text-anchor="middle" x="1542" y="-38.4" font-family="Times,serif" font-size="14.00">IN</text>
</g>
<!-- nid&#45;19&#45;out&#45;&gt;nid&#45;1c -->
<g id="edge114" class="edge"><title>nid&#45;19&#45;out&#45;&gt;nid&#45;1c</title>
<path fill="none" stroke="gray" stroke-dasharray="5,2" d="M1617.84,-99.3929C1679.12,-126.374 1765.48,-164.403 1830.02,-192.822"/>
<polygon fill="gray" stroke="gray" points="1828.82,-196.116 1839.38,-196.943 1831.64,-189.71 1828.82,-196.116"/>
</g>
<!-- nid&#45;19&#45;out&#45;&gt;nid&#45;1d -->
<g id="edge125" class="edge"><title>nid&#45;19&#45;out&#45;&gt;nid&#45;1d</title>
<path fill="none" stroke="gray" stroke-dasharray="5,2" d="M1617.84,-63.5861C1684.07,-61.4779 1779.61,-58.4368 1845.22,-56.3484"/>
<polygon fill="gray" stroke="gray" points="1845.6,-59.8381 1855.49,-56.0216 1845.38,-52.8416 1845.6,-59.8381"/>
</g>
<!-- nid&#45;1a&#45;&gt;nid&#45;1a&#45;ampout -->
<g id="edge88" class="edge"><title>nid&#45;1a&#45;&gt;nid&#45;1a&#45;ampout</title>
<path fill="none" stroke="#0000ff" d="M482.948,-262C559.292,-262 713.387,-262 767.055,-262"/>
<polygon fill="#0000ff" stroke="#0000ff" points="767.222,-263.75 772.222,-262 767.222,-260.25 767.222,-263.75"/>
</g>
<!-- nid&#45;1b&#45;&gt;nid&#45;1b&#45;ampout -->
<g id="edge97" class="edge"><title>nid&#45;1b&#45;&gt;nid&#45;1b&#45;ampout</title>
<path fill="none" stroke="#0000ff" d="M482.948,-162C559.292,-162 713.387,-162 767.055,-162"/>
<polygon fill="#0000ff" stroke="#0000ff" points="767.222,-163.75 772.222,-162 767.222,-160.25 767.222,-163.75"/>
</g>
<!-- nid&#45;1c&#45;&gt;nid&#45;1c&#45;ampout -->
<g id="edge106" class="edge"><title>nid&#45;1c&#45;&gt;nid&#45;1c&#45;ampout</title>
<path fill="none" stroke="#c8c8c8" d="M1983.62,-232C2070.33,-232 2219.45,-232 2271.46,-232"/>
<polygon fill="#c8c8c8" stroke="#c8c8c8" points="2271.47,-233.75 2276.47,-232 2271.47,-230.25 2271.47,-233.75"/>
</g>
<!-- nid&#45;1d&#45;&gt;nid&#45;1d&#45;ampout -->
<g id="edge117" class="edge"><title>nid&#45;1d&#45;&gt;nid&#45;1d&#45;ampout</title>
<path fill="none" stroke="#c8c8c8" d="M1983.62,-54C2070.33,-54 2219.45,-54 2271.46,-54"/>
<polygon fill="#c8c8c8" stroke="#c8c8c8" points="2271.47,-55.7501 2276.47,-54 2271.47,-52.2501 2271.47,-55.7501"/>
</g>
<!-- nid&#45;1e&#45;in -->
<g id="node115" class="node"><title>nid&#45;1e&#45;in</title>
<polygon fill="none" stroke="green" points="3129,-358 2945,-358 2945,-290 3129,-290 3129,-358"/>
<text text-anchor="middle" x="3037" y="-341.4" font-family="Times,serif" font-size="14.00">30</text>
<text text-anchor="middle" x="3037" y="-326.4" font-family="Times,serif" font-size="14.00">[Jack] SPDIF Out at Ext Rear</text>
<text text-anchor="middle" x="3037" y="-311.4" font-family="Times,serif" font-size="14.00">Stereo Digital</text>
<text text-anchor="middle" x="3037" y="-296.4" font-family="Times,serif" font-size="14.00">OUT</text>
</g>
<!-- nid&#45;24&#45;&gt;nid&#45;1e&#45;in -->
<g id="edge129" class="edge"><title>nid&#45;24&#45;&gt;nid&#45;1e&#45;in</title>
<path fill="none" stroke="#333333" d="M2696.16,-321.344C2753.82,-321.793 2856.51,-322.594 2934.15,-323.199"/>
<polygon fill="#333333" stroke="#333333" points="2934.43,-326.701 2944.45,-323.279 2934.48,-319.701 2934.43,-326.701"/>
</g>
<!-- nid&#45;1f&#45;in -->
<g id="node120" class="node"><title>nid&#45;1f&#45;in</title>
<polygon fill="none" stroke="green" points="3112,-266 2962,-266 2962,-198 3112,-198 3112,-266"/>
<text text-anchor="middle" x="3037" y="-249.4" font-family="Times,serif" font-size="14.00">31</text>
<text text-anchor="middle" x="3037" y="-234.4" font-family="Times,serif" font-size="14.00">[N/A] Other at Ext N/A</text>
<text text-anchor="middle" x="3037" y="-219.4" font-family="Times,serif" font-size="14.00">Stereo Digital</text>
<text text-anchor="middle" x="3037" y="-204.4" font-family="Times,serif" font-size="14.00">OUT EAPD</text>
</g>
<!-- nid&#45;24&#45;&gt;nid&#45;1f&#45;in -->
<g id="edge133" class="edge"><title>nid&#45;24&#45;&gt;nid&#45;1f&#45;in</title>
<path fill="none" stroke="#333333" d="M2693.2,-311.475C2754.5,-297.306 2871.08,-270.355 2951.37,-251.796"/>
<polygon fill="#333333" stroke="#333333" points="2952.51,-255.125 2961.46,-249.462 2950.93,-248.305 2952.51,-255.125"/>
</g>
<!-- nid&#45;25&#45;&gt;nid&#45;1f&#45;in -->
<g id="edge135" class="edge"><title>nid&#45;25&#45;&gt;nid&#45;1f&#45;in</title>
<path fill="none" stroke="gray" stroke-dasharray="5,2" d="M2699.21,-153.913C2761.89,-168.402 2873.69,-194.249 2951.43,-212.219"/>
<polygon fill="gray" stroke="gray" points="2950.68,-215.637 2961.21,-214.48 2952.25,-208.817 2950.68,-215.637"/>
</g>
<!-- nid&#45;20&#45;in -->
<g id="node126" class="node"><title>nid&#45;20&#45;in</title>
<polygon fill="none" stroke="green" points="3112,-174 2962,-174 2962,-106 3112,-106 3112,-174"/>
<text text-anchor="middle" x="3037" y="-157.4" font-family="Times,serif" font-size="14.00">32</text>
<text text-anchor="middle" x="3037" y="-142.4" font-family="Times,serif" font-size="14.00">[N/A] Other at Ext N/A</text>
<text text-anchor="middle" x="3037" y="-127.4" font-family="Times,serif" font-size="14.00">Stereo Digital</text>
<text text-anchor="middle" x="3037" y="-112.4" font-family="Times,serif" font-size="14.00">OUT</text>
</g>
<!-- nid&#45;25&#45;&gt;nid&#45;20&#45;in -->
<g id="edge139" class="edge"><title>nid&#45;25&#45;&gt;nid&#45;20&#45;in</title>
<path fill="none" stroke="#333333" d="M2695.79,-142.659C2757.56,-142.177 2871.57,-141.289 2950.71,-140.672"/>
<polygon fill="#333333" stroke="#333333" points="2951.18,-144.169 2961.15,-140.591 2951.13,-137.169 2951.18,-144.169"/>
</g>
<!-- nid&#45;21 -->
<g id="node130" class="node"><title>nid&#45;21</title>
<ellipse fill="none" stroke="blue" cx="2290" cy="-321" rx="68.7979" ry="26.8701"/>
<text text-anchor="middle" x="2290" y="-323.4" font-family="Times,serif" font-size="14.00">33</text>
<text text-anchor="middle" x="2290" y="-308.4" font-family="Times,serif" font-size="14.00">Stereo Digital</text>
</g>
<!-- nid&#45;21&#45;&gt;nid&#45;24 -->
<g id="edge145" class="edge"><title>nid&#45;21&#45;&gt;nid&#45;24</title>
<path fill="none" stroke="#333333" d="M2359.8,-321C2429.28,-321 2534.45,-321 2597.85,-321"/>
<polygon fill="#333333" stroke="#333333" points="2598.04,-324.5 2608.04,-321 2598.04,-317.5 2598.04,-324.5"/>
</g>
<!-- nid&#45;22 -->
<g id="node132" class="node"><title>nid&#45;22</title>
<ellipse fill="none" stroke="blue" cx="2290" cy="-143" rx="68.7979" ry="26.8701"/>
<text text-anchor="middle" x="2290" y="-145.4" font-family="Times,serif" font-size="14.00">34</text>
<text text-anchor="middle" x="2290" y="-130.4" font-family="Times,serif" font-size="14.00">Stereo Digital</text>
</g>
<!-- nid&#45;22&#45;&gt;nid&#45;25 -->
<g id="edge152" class="edge"><title>nid&#45;22&#45;&gt;nid&#45;25</title>
<path fill="none" stroke="#333333" d="M2359.8,-143C2429.28,-143 2534.45,-143 2597.85,-143"/>
<polygon fill="#333333" stroke="#333333" points="2598.04,-146.5 2608.04,-143 2598.04,-139.5 2598.04,-146.5"/>
</g>
</g>
</svg>
